<svg xmlns="http://www.w3.org/2000/svg" viewBox="0 0 448.54 448">
  <g id="Layer_1-2" data-name="Layer 1">
    <path fill="currentColor" stroke="currentColor" class="cls-1"
      d="M424,265H137.64L96,224l41.59-41H424c13.3,0,24,11,24,24.63v32.82A24.23,24.23,0,0,1,424.15,265Z" />
    <path fill="currentColor" stroke="currentColor"
      d="M201.73,441.48l-.71-.71L7,241.44a25,25,0,0,1,0-34.78L201,7.23a23.38,23.38,0,0,1,33.06-.75l.05,0c.24.22.47.46.7.7L257,30a25.13,25.13,0,0,1-.4,35.18L95.85,224,256.58,382.8A24.94,24.94,0,0,1,257,418l-22.15,22.79a23.39,23.39,0,0,1-33.06.75Z" />
  </g>
</svg>