<svg xmlns="http://www.w3.org/2000/svg" viewBox="0 0 448 448.54">

  <g id="Layer_1-2" data-name="Layer 1">
    <path fill="currentColor" stroke="currentColor" class="cls-1"
      d="M265,24.5V310.9l-41,41.6-41-41.59V24.5c0-13.3,11-24,24.63-24h32.82A24.23,24.23,0,0,1,265,24.39Z" />
    <path fill="currentColor" stroke="currentColor"
      d="M441.48,246.81l-.71.71-199.33,194a25,25,0,0,1-34.78,0L7.23,247.5a23.37,23.37,0,0,1-.75-33.05l0-.06c.22-.24.46-.47.7-.7L30,191.56a25.13,25.13,0,0,1,35.18.4L224,352.69,382.8,192a24.94,24.94,0,0,1,35.18-.4l22.79,22.15a23.39,23.39,0,0,1,.75,33.06Z" />
  </g>
</svg>