<svg xmlns="http://www.w3.org/2000/svg" viewBox="0 0 448.54 448">
  <g id="Layer_1-2" data-name="Layer 1">
    <path fill="currentColor" stroke="currentColor" class="cls-1"
      d="M24.5,183H310.9l41.6,41-41.59,41H24.5c-13.3,0-24-11-24-24.63V207.55A24.22,24.22,0,0,1,24.39,183Z" />
    <path fill="currentColor" stroke="currentColor"
      d="M246.81,6.52c.24.23.48.47.71.71l194,199.33a25,25,0,0,1,0,34.78l-194,199.43a23.38,23.38,0,0,1-33.05.75l-.06,0c-.24-.22-.47-.46-.7-.7L191.56,418a25.13,25.13,0,0,1,.4-35.18L352.69,224,192,65.2a24.94,24.94,0,0,1-.4-35.18L213.71,7.23a23.38,23.38,0,0,1,33.06-.75Z" />
  </g>
</svg>