<svg xmlns="http://www.w3.org/2000/svg" viewBox="0 0 448 448.54">
  <g id="Layer_1-2" data-name="Layer 1">
    <path fill="currentColor" stroke="currentColor" class="cls-1"
      d="M183,424V137.64L224,96l41,41.59V424c0,13.3-11,24-24.63,24H207.55A24.22,24.22,0,0,1,183,424.15Z" />
    <path fill="currentColor" stroke="currentColor"
      d="M6.52,201.73l.71-.71L206.56,7a25,25,0,0,1,34.78,0L440.77,201a23.39,23.39,0,0,1,.75,33.06l0,.05c-.22.24-.46.47-.7.7L418,257a25.13,25.13,0,0,1-35.18-.4L224,95.85,65.2,256.58A24.94,24.94,0,0,1,30,257L7.23,234.83a23.38,23.38,0,0,1-.75-33.06Z" />
  </g>
</svg>