<svg xmlns="http://www.w3.org/2000/svg" viewBox="0 0 575.99 512.03">
  <g id="Layer_1-2" data-name="Layer 1">
    <path fill="currentColor" stroke="currentColor" class="cls-1"
      d="M96,0H32A32,32,0,0,0,0,32V96H128V32A32,32,0,0,0,96,0ZM0,384H128V128H0Zm0,96a32,32,0,0,0,32,32H96a32,32,0,0,0,32-32V416H0Zm513.62-17.78L401.08,42.72,340.82,58.86l112.35,418.8c.11.39.2.79.29,1.18l60.29-16.15C513.71,462.54,513.66,462.39,513.62,462.23ZM160,480a32,32,0,0,0,32,32h64a32,32,0,0,0,32-32V416H160ZM256,0H192a32,32,0,0,0-32,32V96H284.79l-8-29.65a23.94,23.94,0,0,1,11.17-27V32A32,32,0,0,0,256,0ZM160,384H288V128H160Z" />
    <path fill="currentColor" stroke="currentColor"
      d="M0,416H128V384H0ZM0,128H128V96H0ZM575.17,445.66,460.39,17.79a23.9,23.9,0,0,0-29.18-17h-.09L415.73,5a24,24,0,0,0-16.9,29.36L513.62,462.23a23.89,23.89,0,0,0,29.18,17h.09L558.27,475a24,24,0,0,0,16.9-29.35ZM160,416H288V384H160ZM338.39,49.79a23.9,23.9,0,0,0-29.18-17h-.09L293.73,37a24,24,0,0,0-16.9,29.36l8,29.65H160v32H288V108L391.62,494.23a23.89,23.89,0,0,0,29.18,17h.09L436.27,507a24,24,0,0,0,16.9-29.33Z" />
  </g>
</svg>