<svg xmlns="http://www.w3.org/2000/svg" viewBox="0 0 512.03 512">
  <g id="Layer_1-2" data-name="Layer 1">
    <path fill="currentColor" stroke="currentColor" class="cls-1" d="M369,112H145a112,112,0,0,1,224,0Z" />
    <path fill="currentColor" stroke="currentColor"
      d="M512,288.9c-.48,17.43-15.22,31.1-32.66,31.1H424v16a143.27,143.27,0,0,1-13.6,61.14l60.23,60.23a32,32,0,0,1-45.26,45.26l-54.73-54.74A143.43,143.43,0,0,1,280,480V236a12,12,0,0,0-12-12H244a12,12,0,0,0-12,12V480a143.43,143.43,0,0,1-90.64-32.11L86.64,502.63a32,32,0,0,1-45.26-45.26l60.23-60.23A143.57,143.57,0,0,1,88,336V320H32.68C15.24,320,.5,306.33,0,288.9A32,32,0,0,1,31.1,256H88V197.26L41.38,150.63a32,32,0,0,1,45.26-45.26L141.26,160H370.75l54.63-54.63a32,32,0,0,1,45.26,45.26L424,197.26V256h56a32,32,0,0,1,32,32C512,288.29,512,288.6,512,288.9Z" />
  </g>
</svg>