<svg xmlns="http://www.w3.org/2000/svg" viewBox="0 0 512.05 512">
  <defs>
    <style>
      .cls-1 {
        fill: #58595b;
      }
    </style>
  </defs>
  <g id="Layer_2" data-name="Layer 2">
    <g id="Layer_1-2" data-name="Layer 1">
      <path fill="currentColor" stroke="currentColor" class="cls-1"
        d="M483.46,244.2,351.91,288h97.78c-9.92,10.68,3.68-3.07-46.3,46.86L255.81,384H354c-74.94,73.11-194.52,70.65-246.82,54.94l-.06-.05L305.06,241a24,24,0,0,0-34-34h0L73.25,404.87l-.2-.21c-12.13-40.37-26.12-166.28,56.11-248.43,24.78-24.74,7.15-7.14,85.75-85.66,90.61-90.51,189.73-88.21,252.28-25.73,50.58,50.52,61.7,124.9,16.27,199.36Z" />
      <path fill="currentColor" stroke="currentColor"
        d="M24.06,512a24,24,0,0,1-17-41l264-264a24,24,0,0,1,34,34h0l-264,264A23.88,23.88,0,0,1,24.06,512Z" />
    </g>
  </g>
</svg>