<svg xmlns="http://www.w3.org/2000/svg" viewBox="0 0 576 511.99">
  <g id="Layer_1-2" data-name="Layer 1">
    <path fill="currentColor" stroke="currentColor" class="cls-1"
      d="M496,512H368a16,16,0,0,1-16-16V368a16,16,0,0,0-16-16H240a16,16,0,0,0-16,16V496a16,16,0,0,1-16,16H80a16,16,0,0,1-16-16V311c1.78-1.21,3.85-1.89,5.47-3.35L288,115l218.74,192.9c1.54,1.38,3.56,2,5.26,3.2V496A16,16,0,0,1,496,512Z" />
    <path fill="currentColor" stroke="currentColor"
      d="M527.92,283.87,298.6,81.6a16,16,0,0,0-21.17,0L48.11,283.88a16,16,0,0,1-22.59-1.21L4.1,258.88a16,16,0,0,1,1.21-22.59l256-226a39.85,39.85,0,0,1,53.45,0L416,99.66V48a16,16,0,0,1,16-16h64a16,16,0,0,1,16,16V184.42l58.69,51.83a16,16,0,0,1,1.22,22.59l-21.4,23.82a16,16,0,0,1-22.59,1.21Z" />
  </g>
</svg>