<svg xmlns="http://www.w3.org/2000/svg" viewBox="0 0 576.01 448">
  <g id="Layer_1-2" data-name="Layer 1">
    <path fill="currentColor" stroke="currentColor" class="cls-1"
      d="M336,431.59V336a16,16,0,0,0-16-16H256a16,16,0,0,0-16,16v95.71a16,16,0,0,1-15.92,16L112,448a16,16,0,0,1-16-16V268.06L280.36,116.21a12.19,12.19,0,0,1,15.3,0L480,268V432a16,16,0,0,1-16,16l-112-.31a16,16,0,0,1-16-16Z" />
    <path fill="currentColor" stroke="currentColor"
      d="M573.29,236.35l-25.5,31A12,12,0,0,1,530.9,269h0L295.66,75.21a12.19,12.19,0,0,0-15.3,0L45.14,269a12,12,0,0,1-16.89-1.65l-25.5-31a12,12,0,0,1,1.61-16.89L257.46,11a48,48,0,0,1,61,0L408,84.61V12A12,12,0,0,1,420,0h56a12,12,0,0,1,12,12V150.51l83.6,68.91a12,12,0,0,1,1.76,16.88l0,0Z" />
  </g>
</svg>