<svg xmlns="http://www.w3.org/2000/svg" viewBox="0 0 512.06 512">
  <defs>
    <style>
      .cls-1 {
        fill: #58595b;
      }
    </style>
  </defs>
  <g id="Layer_2" data-name="Layer 2">
    <g id="Layer_1-2" data-name="Layer 1">
      <path fill="currentColor" stroke="currentColor" class="cls-1"
        d="M458.44,234.79,351.89,288h81.17a397.06,397.06,0,0,1-30.46,47.12L255.79,384h101c-35.57,30.07-79.11,51.1-132.59,56.54a1131,1131,0,0,1-126,7.36h-.06L305.06,241a24,24,0,0,0-34-34h0l-207,207c.08-62.81,4-100.05,7-126.44C96.5,38.2,460.27,3.56,512.06,0,510.25,26.26,500.35,132.86,458.44,234.79Z" />
      <path fill="currentColor" stroke="currentColor"
        d="M24.06,512a24,24,0,0,1-17-41l264-264a24,24,0,0,1,34,34h0l-264,264A24,24,0,0,1,24.06,512Z" />
    </g>
  </g>
</svg>