<svg xmlns="http://www.w3.org/2000/svg" viewBox="0 0 511.97 512.6">
  <g id="Layer_1-2" data-name="Layer 1">
    <path fill="currentColor" stroke="currentColor" class="cls-1"
      d="M245.29,410.5l-75,92.83c-14,17.1-42.5,7.8-42.5-15.8V358L408.05,105.23c5.5-4.9,13.3,2.6,8.6,8.3L191.48,387.87Z" />
    <path fill="currentColor" stroke="currentColor"
      d="M511.62,28l-72,432a24.06,24.06,0,0,1-33,18.2L191.75,387.87,416.92,113.53c4.7-5.7-3.1-13.2-8.6-8.3L128,358,14.72,313.83a24,24,0,0,1-2.2-43.2L476,3.23C493.32-6.77,515,7.83,511.62,28Z" />
  </g>
</svg>