<svg xmlns="http://www.w3.org/2000/svg" viewBox="0 0 640 512">
  <g id="Layer_1-2" data-name="Layer 1">
    <path fill="currentColor" stroke="currentColor" class="cls-1"
      d="M539.31,228.69,512,256l27.31,27.31A16,16,0,0,1,544,294.63V384H454.63a16,16,0,0,0-11.32,4.69L416,416l-27.31-27.31A16,16,0,0,0,377.37,384H304a16,16,0,0,0-16,16v32a80,80,0,0,1-80,80h-.61c-44.11-.33-79.39-36.89-79.39-81V262.63a16,16,0,0,1,4.69-11.32L160,224l-27.31-27.31A16,16,0,0,1,128,185.37V65A65,65,0,0,0,63,0H448a96.1,96.1,0,0,1,95.68,88.2,16.16,16.16,0,0,1-4.63,12.8l-27,27,27.31,27.31A16,16,0,0,1,544,166.63v50.74A16,16,0,0,1,539.31,228.69Z" />
    <path fill="currentColor" stroke="currentColor"
      d="M192,512h16c-2.59,0-5.14-.13-7.66-.37C197.59,511.87,194.81,512,192,512ZM64,0A64,64,0,0,0,0,64v48a16,16,0,0,0,16,16H128V65A65,65,0,0,0,64,0ZM624,384H454.63a16,16,0,0,0-11.32,4.69L416,416l-27.31-27.31A16,16,0,0,0,377.37,384H304a16,16,0,0,0-16,16v32a80,80,0,0,1-80,80H528A112,112,0,0,0,640,400v-.06A16,16,0,0,0,624,384Z" />
  </g>
</svg>