<svg xmlns="http://www.w3.org/2000/svg" viewBox="0 0 513 513">
  <defs>
    <style>
      .cls-1 {
        fill: #6d6e71;
        stroke: #6d6e71;
        stroke-miterlimit: 10;
      }
    </style>
  </defs>
  <g id="Layer_2" data-name="Layer 2">
    <g id="Layer_1-2" data-name="Layer 1">
      <path fill="currentColor" stroke="currentColor" class="cls-1"
        d="M498.44,226.44,286.56,14.56A48,48,0,0,0,252.62.5H48.5a48,48,0,0,0-48,48V252.62a48,48,0,0,0,14.06,33.94L226.44,498.44a48,48,0,0,0,67.88,0L498.44,294.32A48,48,0,0,0,498.44,226.44ZM112.5,160.5a48,48,0,1,1,48-48A48,48,0,0,1,112.5,160.5Z" />
    </g>
  </g>
</svg>