<svg xmlns="http://www.w3.org/2000/svg" viewBox="0 0 640.5 513">
  <g id="Layer_1-2" data-name="Layer 1">
    <path fill="currentColor" stroke="currentColor"
      d="M497.94,226.44,286.06,14.56A48,48,0,0,0,252.12.5H48a48,48,0,0,0-48,48V252.62a48,48,0,0,0,14.06,33.94L225.94,498.44a48,48,0,0,0,67.88,0L497.94,294.32A48,48,0,0,0,497.94,226.44ZM112,160.5a48,48,0,1,1,48-48A48,48,0,0,1,112,160.5Z" />
    <path fill="currentColor" stroke="currentColor" class="cls-1"
      d="M625.94,294.32,421.82,498.44a48,48,0,0,1-67.88,0l-.36-.36L527.64,324a90,90,0,0,0,0-127.28h0L331.4.5h48.72a48,48,0,0,1,33.94,14.06L625.94,226.44A48,48,0,0,1,625.94,294.32Z" />
  </g>
</svg>