<svg xmlns="http://www.w3.org/2000/svg" viewBox="0 0 640.5 513">
  <g id="Layer_1-2" data-name="Layer 1">
    <path fill="currentColor" stroke="currentColor"
      d="M263.36,348.3,136.3,391.94c-8.75,3-18.05-.69-21.27-8.47l-8.74-21.1L42.18,388.92a16,16,0,0,1-20.9-8.66h0L1.22,331.84a16,16,0,0,1,8.66-20.9L74,284.38l-8.74-21.11c-3.22-7.77.74-17,9.06-21L380.42,92.63l78.13,188.62L392,304.13a72,72,0,0,0-144,.37A71.11,71.11,0,0,0,263.36,348.3Z" />
    <path fill="currentColor" stroke="currentColor" class="cls-1"
      d="M638.78,217.33,553.06,10.38a16,16,0,0,0-20.9-8.66h0L414.84,50.32a16,16,0,0,0-8.65,20.9h0l85.71,207a16,16,0,0,0,20.91,8.66l117.31-48.6a16,16,0,0,0,8.66-20.9ZM376.13,349A71.27,71.27,0,0,0,392,304.5a72,72,0,1,0-144,0A71.26,71.26,0,0,0,263.86,349l-47.47,142.4a16,16,0,0,0,15.18,21.06h16.86a16,16,0,0,0,15.18-10.94l42.16-126.5a71,71,0,0,0,28.45,0l42.17,126.5a16,16,0,0,0,15.18,10.94h16.86a16,16,0,0,0,15.18-21.06ZM320,328.5a24,24,0,1,1,24-24A24,24,0,0,1,320,328.5Z" />
  </g>
</svg>