<svg xmlns="http://www.w3.org/2000/svg" viewBox="0 0 3991.75 4000">
  <defs>
    <style>
      .cls-1 {
        fill: #111827;
      }

      .cls-2,
      .cls-3,
      .cls-5,
      .cls-7,
      .cls-8,
      .cls-9 {
        fill: none;
      }

      .cls-2,
      .cls-6,
      .cls-7 {
        stroke: #61a6fa;
      }

      .cls-2,
      .cls-3,
      .cls-4,
      .cls-5,
      .cls-6,
      .cls-7,
      .cls-8 {
        stroke-miterlimit: 10;
      }

      .cls-10,
      .cls-2,
      .cls-3,
      .cls-7,
      .cls-9 {
        stroke-width: 19.77px;
      }

      .cls-10,
      .cls-3,
      .cls-4,
      .cls-5,
      .cls-8,
      .cls-9 {
        stroke: #4ade80;
      }

      .cls-10,
      .cls-3,
      .cls-4,
      .cls-5,
      .cls-6,
      .cls-7,
      .cls-8,
      .cls-9 {
        stroke-linecap: round;
      }

      .cls-10,
      .cls-12,
      .cls-13,
      .cls-4 {
        fill: #4ade80;
      }

      .cls-4,
      .cls-6 {
        stroke-width: 2.47px;
      }

      .cls-5 {
        stroke-width: 18.49px;
      }

      .cls-11,
      .cls-6 {
        fill: #61a6fa;
      }

      .cls-8 {
        stroke-width: 7.42px;
      }

      .cls-13,
      .cls-14 {
        fill-rule: evenodd;
      }

      .cls-14 {
        fill: #60a5fa;
      }
    </style>
  </defs>
  <g id="Layer_2" data-name="Layer 2">
    <g id="Layer_1-2" data-name="Layer 1">
      <g id="SvgjsG2205">
        <path class="cls-1"
          d="M730.14,476.13h18.49l-14.79-7.72ZM778.22,453c0,3.86,0,3.86,3.69,3.86l14.8-11.58C789.31,441.39,785.61,441.39,778.22,453ZM634,557.18l11.09-7.72a12.21,12.21,0,0,0,3.7-7.72h-7.4L634,557.18C630.3,553.32,630.3,557.18,634,557.18Zm81.35-111.93h-3.7L704.26,453h11.09Zm-77.66,92.64,22.19-19.3c3.7-3.86,3.7-7.72,3.7-11.58H652.49l-44.38,42.45-7.4,15.44,25.89-23.16Z" />
        <path class="cls-1"
          d="M356.65,850.52V842.8c3.7-15.44,11.09-30.88,25.88-42.46l33.29-23.16L434.31,754l25.88-27L475,711.57,489.78,700c14.79-7.72,22.18-19.3,29.58-34.74L534.15,646c14.79-15.44,25.89-30.88,37-50.18l7.4-11.58,11.09-7.72-7.4-11.58L597,545.6c29.58-23.15,51.77-54,81.35-77.19l11.1-11.58c3.69-7.72,11.09-19.3,18.49-23.16l29.58-15.43h14.79c11.09-3.86,18.49-11.58,25.89-23.16v-7.72c11.09-23.16,25.88-42.46,48.07-54L855.87,314l7.4-7.71,14.79-15.44,37-19.3h7.4L881.76,287,830,325.6c-22.19,19.3-51.77,23.16-66.57,54h11.1c-25.89,7.72-51.77,19.3-62.87,46.31s-29.58,23.16-44.37,34.74c-7.4,0-11.1,7.72-11.1,15.44-29.58-3.86-40.67,19.3-55.47,34.74v30.87c-25.88,11.58-44.37,30.88-59.16,54-59.17,3.86-59.17,81.05-110.94,96.49h-3.7V700c-11.09,0-18.49,7.72-14.79,19.3l-7.4,19.3c-25.88,15.44-22.19,42.45-37,65.61-29.58,19.3-40.68,57.9-62.86,84.91L316,908.41l7.4-7.72c7.39-19.3,18.49-34.73,33.28-50.17ZM1991.15,13l22.19,7.72h7.39c14.8,7.72,33.29,11.58,51.78,7.72,22.18-3.86,48.07-3.86,70.26,3.86h44.37c14.79-3.86,33.28,0,44.38,11.58v3.86h-14.79v3.86h25.88a52.8,52.8,0,0,1,48.08,0c7.39,0,3.69,3.86,7.39,7.72L2316.57,67h-7.39c-7.4-15.44-18.49-15.44-29.59-15.44-48.07-23.16-103.54-34.74-159-34.74H2091c-44.38-15.44-88.76-19.3-133.13-15.44h7.39ZM2261.1,132.62h0Zm277.35,19.3c11.09,11.58,25.89,11.58,37,7.72h22.19c-18.49-15.44-40.68-27-66.57-27l-25.88-7.72,18.49,11.58Zm-125.73-50.18c0,3.86,3.7,7.72,7.39,11.58h7.4L2446,101.74c-18.49-11.58-40.68-19.29-62.87-23.15L2409,94ZM2686.37,206l29.58,19.3C2708.56,213.67,2701.16,206,2686.37,206Z" />
        <path class="cls-1"
          d="M3658.93,2822.8l22.19-61.75,22.19-57.9c7.39-19.29,22.19-69.47,29.58-100.35,0-11.58,3.7-19.29,11.1-27h3.69v-42.46c18.49-3.86,14.8-23.16,18.49-34.74l29.59-181.4c18.49-77.19,18.49-162.11,0-239.3,3.7-23.16-3.7-46.32-18.49-61.75v-166c-11.1-34.74,11.09-73.33-14.79-104.21l-29.59-123.51v-7.72l-7.39-23.16c-3.7-3.86-3.7-11.58,0-15.44h3.69c11.1,0,11.1-19.29,11.1-34.73-3.7-15.44-7.4-30.88-14.79-42.46l-11.1-15.44c-3.69-7.72-7.39-19.3-7.39-27,0-27,0-50.17-7.4-77.19v-23.16c-7.39-27-14.79-57.89-22.19-84.91l-7.39-19.3c-7.4-11.58-14.79-27-14.79-42.45-3.7-11.58-7.4-23.16-11.1-30.88L3622,1140c-7.39-3.86-14.79-7.72-22.18-7.72h-3.7v-11.58h-7.4v-30.87H3585v-19.3c3.7-7.72,3.7-11.58-3.69-19.3s-11.1-15.44-14.8-23.16l-7.39-23.16c-3.7-19.29-14.79-34.73-25.89-46.31-7.39-7.72-14.79-15.44-18.49-27l-25.88-61.75c-7.4-15.44-14.79-27-22.19-38.6l-22.19-30.88c-7.39-7.72-11.09-19.3-14.79-30.88l-7.4-11.57c-3.69-3.86-3.69-11.58-3.69-19.3s-3.7-11.58-7.4-15.44l-14.79-11.58v7.72c3.7,7.72,0,11.58-3.7,11.58h-7.4l11.1,38.59,11.09,19.3,25.89,34.74h-3.7l-7.4-7.72-7.39-7.72c-3.7-23.16-22.19-42.45-44.38-42.45v-27c-11.09-46.32-59.16-50.18-81.35-81.06-7.4-19.29-22.19-30.87-40.68-34.73l-29.58-34.74c-29.59-46.32-70.27-84.91-114.64-115.79l-29.58-23.16-14.8-11.58c-25.88-27-37-69.47-81.35-69.47l-29.59-19.3-33.28-27c-11.09-27-37-46.31-66.56-50.17-25.89-23.16-51.77-38.6-85-46.32l7.39,7.72,18.49,15.44,48.08,27c29.58,15.44,55.46,38.6,77.65,61.75,14.79,15.44,37,30.88,55.47,42.46l22.19,19.3c3.7,3.86,7.4,7.72,3.7,11.58h-3.7L2960,398.94c-25.89-3.86-51.77-15.44-74-30.88l-44.38-23.16-48.07-27h-7.4c-11.09-3.85-14.79-15.43-29.58-19.29l-29.58-7.72-92.45-19.3c-11.1-7.72-25.89-15.44-33.29-27q-16.64,0-33.28-11.58l-37-15.44c-37-7.72-70.26-19.29-103.54-30.87l-22.19-7.72-37-11.58h-18.49l-7.39-11.58v-3.86h-59.17l-22.19-19.3-14.79,7.72-14.79,7.72h-7.4l-33.28-19.3c-22.19,23.16-40.68-7.72-59.17-3.86l-37-11.58q-22.18,11.58-44.37,0h-44.38c-11.09,0-18.49-11.58-18.49-23.16l11.1-7.71h22.18c3.7,3.86,3.7,7.71,3.7,11.57,0,7.72,7.4,7.72,18.49,7.72h7.4l-14.79-23.15c-11.1-7.72-25.89-11.58-37-7.72l-37,11.58h-3.7c11.09,7.71,7.39,11.57,7.39,19.29H1906.1L1891.3,94l-29.58-15.43H1858l-25.88-7.72h-85.06l14.8-7.72,29.58-7.72h11.09l62.87-11.58,40.68-7.72,22.18-7.72h-40.67a344.17,344.17,0,0,0-125.73,0H1713.8l-125.73-3.86c-51.77,3.86-103.54,0-144.22,46.32-92.45-15.44-173.8,27-255.16,69.47l-81.35,34.74c-51.78,7.72-99.85,30.87-136.83,69.47H981.6L1000.09,233l29.59-19.3,48.07-23.15,37-7.72c22.19-15.44,48.08-27,74-34.74L1222,136.48h7.4c3.7,7.72,18.49,0,25.88,0h7.4c3.7,0,3.7,3.86,0,3.86l-22.19,15.44,37-11.58,29.59-7.72-48.08,27-48.07,15.44a38.39,38.39,0,0,0-22.19,19.3l-11.09,19.29h11.09l14.79-7.72q11.1-17.35,33.28-23.15l55.47-19.3h18.49c3.7,0,3.7,0,3.7,3.86v3.86h0c-7.39,7.72-22.19,11.58-29.58,19.3h7.39L1173.9,229.11l-140.52,61.76c-25.89,23.15-51.78,38.59-85.06,46.31-18.49,19.3-40.67,30.88-62.86,42.46l-29.59,7.72c-7.39,19.3-25.88,34.74-48.07,34.74l-11.09,19.29c-11.1,19.3-25.89,30.88-44.38,42.46h-3.7V480l-7.39,7.72-7.4,7.72-37,7.72H678.37l-14.79,19.3c-3.7,3.86-3.7,7.72,0,7.72h3.7c-22.19,23.15-37,54-66.57,65.61l-48.07,57.89C530.45,700,486.08,715.43,456.49,754S404.72,904.55,312.27,920l-7.39-11.58-7.4,19.3c-3.7,11.58-7.4,23.16-14.79,30.88-14.79,27-33.28,54-44.38,81.05-3.69,7.72-3.69,11.58-3.69,19.3,0,11.58-3.7,23.16-7.4,30.88l-18.49,42.45h7.4c11.09,0,11.09,11.58,14.79,23.16L260.5,1113c3.7-11.57,14.79-19.29,22.19-27A74.25,74.25,0,0,0,316,1051.22l11.09-11.58,14.8-15.44L364,981.75h7.4c3.7,3.86,3.7,3.86,7.4,0l7.39-15.44h18.49v30.87l18.49-19.29c3.7-7.72,3.7-11.58,0-19.3,0-3.86,0-7.72,3.7-11.58s7.4-11.58,11.09-19.3c3.7-15.44,14.8-27,29.59-34.74l11.09-7.72,11.1-11.57c14.79-11.58,22.18-23.16,29.58-38.6L512,823.5c0-3.86,3.7-11.58,7.4-15.44h18.49L560,777.18l22.18-11.57h7.4C512,850.52,445.4,943.15,386.23,1043.5h0a2054,2054,0,0,0-196,432.28H171.75l-18.49-15.44c-7.4-7.72-3.7-27-14.79-34.73h3.7c11.09-19.3-3.7-46.32,11.09-65.62s3.7-54-33.28-46.31S64.51,1333,71.9,1371.57s-37,69.48-40.67,111.93-18.49,19.3-11.1,34.74v150.53c3.7,30.87-18.49,69.47,29.59,81l48.07,34.74c3.7,19.29-18.49,61.75,33.28,50.17a1689.64,1689.64,0,0,0-11.09,193c0,42.46,3.7,84.92,3.7,127.37v-15.44c-3.7-15.43-3.7-30.87-7.4-50.17l-11.09,11.58v-7.72H86.7c0,19.3-3.7,30.88-14.8,34.74-3.69,7.71-3.69,11.57-3.69,19.29,0,3.86,3.69,11.58,7.39,7.72s14.79,7.72,25.89,15.44-7.4,11.58-14.79,7.72-7.4,3.86-7.4,11.58v11.58l18.49,57.89c0,11.58-3.7,23.16-3.7,34.74s3.7,23.16,7.4,30.88H90.39v-11.58l-25.88-7.72v-42.46q-5.55-34.72-11.09-69.47c-7.4-46.32-11.1-88.77-7.4-135.09,0-7.72,0-11.58,3.7-19.3V2047c0,7.72,3.7,11.58,3.7,19.3,0,3.86,0,11.58,3.69,15.44,3.7,7.72,7.4,15.44,14.79,15.44s3.7-3.86,3.7-7.72c0-7.72,0-11.58-3.7-19.3-7.39-15.44-11.09-34.74-11.09-50.18,0-11.57-3.7-19.29-11.09-27-7.4-11.58-7.4-23.16-7.4-34.74v-30.88c0-11.58,3.7-23.16,3.7-34.73,0-3.86,0-11.58-3.7-15.44h-3.7c-29.58,15.44-25.88,7.72-37,61.75v69.48c0,27-3.69,54,0,81,0,30.88,3.7,57.89,7.4,88.77v19.3c0,11.58,0,23.16,3.7,34.74,3.7,15.43,3.7,34.73,3.7,50.17-3.7,23.16,0,46.32,7.39,65.62v15.43c0,11.58,0,19.3,3.7,30.88s7.4,23.16,7.4,34.74c3.69,27,11.09,57.89,18.49,84.91,3.69,11.58,7.39,27,7.39,38.6s3.7,19.3,11.09,27c11.1,15.43,14.8,30.87,18.49,46.31,3.7,11.58,7.4,27,11.1,38.6l14.79,54q5.55,28.95,22.19,57.9c14.79,27,22.19,54,29.58,81.05l7.4,19.3c11.09,11.58,14.79,23.16,18.49,38.6,3.7,11.57,7.39,23.15,14.79,30.87,3.7,3.86,7.4,11.58,7.4,19.3,3.69,11.58,7.39,15.44,14.79,11.58h3.7v34.74l18.49,38.59,18.49,38.6,40.67,46.32,14.79,15.44c11.1,11.57,25.89,19.29,33.29,38.59l14.79,11.58c7.39,3.86,11.09,11.58,11.09,19.3l7.4,27c3.7,11.58,14.79,23.15,22.19,34.73l14.79,7.72H441.7c3.7,0,7.4,7.72,3.7,11.58h0v19.3c3.7,7.72,7.4,15.44,14.79,19.3h7.4c14.79-3.86,29.58,7.72,44.37,27h3.7c0-3.86,3.7-3.86,0-7.72v-7.72c0-3.86,3.7-7.72,7.4-3.86,7.39,3.86,11.09,15.44,11.09,23.16v7.72c3.7,15.43,7.4,30.87,14.79,46.31,18.49,11.58,18.49,11.58,18.49,3.86s0-7.72,7.4-7.72h14.79l7.4,11.58,29.58,19.3c25.89,30.88,66.56,27,96.15,46.31l62.86,65.62H793c11.09,27,33.28,50.17,59.17,61.75,7.39,11.58,22.18,23.16,37,23.16,0,19.3,22.18,23.16,40.67,27,7.4,7.72,18.49,15.44,29.59,15.44h7.39c14.79,15.44,33.28,23.16,55.47,19.3l33.28,30.87,88.76,34.74v7.72c18.49,42.46,62.86,27,92.44,38.6l40.68,15.43h14.79c44.38,11.58,88.76,34.74,136.83,19.3v15.44c40.68,27,88.75,0,133.13,15.44,18.49,7.72,40.67,7.72,62.86,3.86h3.7l29.58,7.72h11.1l33.28,7.72h11.09c7.4-3.86,11.1-3.86,18.49,0,18.49,7.72,37,11.58,55.47,15.44H1810c7.4-3.86,18.49-3.86,25.89,0h144.22c18.49,3.86,40.67,0,59.16-3.86h37l18.49-7.72h122l22.18-7.72,18.49-11.58h81.36v23.16h-48.07l-44.38,7.72c-14.79,3.86-25.89,0-37,3.86s-25.89,7.72-37,7.72L2124.28,3946h-14.8c-18.48-3.86-37-3.86-55.46,3.86h-66.57a49.27,49.27,0,0,1-33.28,0H1787.76c-14.79-3.86-29.58,0-40.68,11.58H1736l-11.09-7.72v-11.57h-44.38c-14.79-7.72-33.28-11.58-48.07-11.58H1540l-25.89-7.72-18.49-7.72L1418,3899.65h-18.49l-18.49-7.72-77.66-27-51.77-15.44H1170.2c-3.7,0-3.7,3.86-3.7,7.72h7.4c48.07,19.3,96.15,34.74,144.22,57.9h11.09l33.29,7.72,51.77,15.44h48.07l22.19,7.71,25.88,11.58,62.87,11.58,40.68,7.72,40.68,7.72h29.58l29.58,7.72h114.64l37,7.72h85l37-7.72h81.36c14.79,0,22.19-3.86,25.88-11.58h37c11.1,0,22.19-3.86,29.59-11.58-3.7,3.86,0,3.86,3.69,7.72h14.8v-7.72c0-3.86,0-3.86,7.39-7.72s22.19-3.86,25.89,3.86h14.79l11.09-7.72c7.4,0,7.4,0,7.4,3.86h25.89l18.49-7.72,29.58-15.43c3.7,11.58,14.79,15.43,48.07,7.72l48.08-15.44h44.37c33.28-3.86,74,0,99.85-27H2568l14.8-11.58,40.67-11.58c25.89-3.86,51.77-15.44,74-30.88l14.79-7.72h3.7l33.28-23.15,14.8-7.72,18.49-7.72h14.79c14.79-3.86,14.79-3.86,18.49-15.44s0-3.86-7.4-3.86h-3.7l14.8-19.3h7.39c11.1-3.86,18.49-7.72,25.89-3.86h7.39c14.79-3.86,29.59-19.3,33.28-34.73,11.1-15.44,40.68-7.72,48.08-30.88l159-119.65c40.68-3.86,51.77-42.46,81.36-65.62s85-42.45,110.93-84.91l33.29-15.44h3.69c18.49,3.86,40.68-7.72,44.38-27v15.43c29.58-15.43,66.56,11.58,96.15-19.29s0-104.22,37-146.67l25.88-19.3a420.75,420.75,0,0,0,55.47-162.11l7.4-7.71c0-11.58,0-27,14.79-34.74,14.79-11.58,18.49-30.88,7.4-46.32h-7.4q5.55-5.79,0-11.58c25.89,0,29.58-27,44.38-38.59v-61.76c0-11.58,0-19.3,3.69-27Z" />
        <path class="cls-1"
          d="M974.21,244.55l-11.09,7.72-14.8,11.58,18.49-7.72Zm225.58-77.19h0l14.79-7.72h-14.79ZM1103.64,206l-3.7,3.86h3.7ZM338.16,896.83l-14.79,15.44h7.39C334.46,908.41,338.16,900.69,338.16,896.83ZM449.1,761.75l11.09-23.16a45.63,45.63,0,0,0-18.49,19.3c-3.7,3.86-3.7,7.72,0,7.72Zm-44.38,57.89v-7.72c-7.39,0-18.49,11.58-29.58,11.58v7.72C386.23,842.8,389.93,838.94,404.72,819.64Zm2326-578.95h0L2716,229.11Zm-92.45-54c18.49-3.86,29.59,15.43,44.38,19.29h3.7l-11.1-7.72-37-19.29-40.67-19.3,11.09,7.72ZM2383.13,82.45h0l-48.07-7.72h18.49Zm74,27,48.08,15.44C2490.38,113.32,2471.89,109.46,2457.09,109.46Zm-332.81,0c3.69-3.86,7.39-11.58,7.39-19.3h-18.49l-11.09,11.58,14.79,11.58ZM2301.78,121v0Zm1656.69,2018.6h-11.1v-15.43h11.1c3.7,0,7.39-11.58,3.7-15.44s-3.7-27-11.1-30.88c-3.7,0-7.39-7.72-7.39-11.58l7.39-15.44v-7.72h-7.39l-7.4-11.58c-3.7,11.58-7.39,23.16-14.79,27v7.72c0,3.86,0,7.72-3.7,7.72h-3.7c0,3.86-3.69,7.72-3.69,11.58-7.4,11.58-11.1,23.16-14.8,34.74,0,3.85,0,11.57,3.7,15.43h3.7c-3.7,11.58-3.7,19.3-3.7,30.88v15.44c0,7.72,0,11.58-3.7,19.3h-3.69l-14.8,27v23.15c0,15.44-3.69,30.88-11.09,42.46h-7.4l-7.39-7.72c-7.4-7.72-7.4-19.3-3.7-30.88,3.7-23.15,3.7-42.45,3.7-65.61,0-3.86-3.7-7.72-3.7-7.72-3.7,3.86-3.7,7.72-3.7,11.58v23.16c0,7.72-3.7,23.16-11.09,27s-3.7,7.72-3.7,11.58l-7.4,23.16,11.1,19.3c-7.4,7.72-14.79,3.86-18.49-3.86v38.6h11.09v15.44c-7.39,15.43-11.09,34.73-11.09,54v15.44c0,15.44-3.7,34.74-7.4,50.18v23.15l-11.09,27c-3.7,7.72-7.4,19.3-11.1,27l-11.09,23.16-33.28,104.21c11.09,34.73-14.79,57.89-29.59,81,3.7,34.74-7.39,65.61-29.58,88.77v15.44c0,3.86,3.7,7.72,11.09,3.86l14.8-11.58,7.39-15.44h7.4c3.7,3.86,7.39,3.86,14.79-3.86h7.4c7.39,7.72,7.39,15.44,3.69,23.16-3.69,11.58-3.69,19.3-3.69,30.88,0,3.86,0,7.72,3.69,7.72h7.4q5.55,5.79,11.09-11.58l7.4-19.3h11.09c14.8-3.86,14.8-3.86,22.19-23.16l18.49-34.73,11.1-23.16,14.79-38.6c0-15.44,3.7-27,11.09-38.6,3.7-7.72,7.4-15.43,3.7-23.15,0-7.72,0-11.58,7.4-23.16l11.09-15.44,18.49-38.6c0-11.58,3.7-23.16,7.39-34.73,7.4-15.44,11.1-30.88,11.1-50.18q5.55-17.37,11.09-34.74v-19.3c-3.7-7.71-3.7-7.71,0-23.15s3.7-7.72,7.4-7.72c3.7,3.86,3.7,7.72,3.7,11.58l7.39-19.3c3.7-11.58,7.4-23.16,7.4-34.74v-11.58c0-3.86,0-11.58-3.7-11.58v15.44c-7.4,0-11.09,7.72-18.49,11.58,3.7-11.58,3.7-19.3,3.7-30.88l14.79-7.72c7.4-7.71,7.4-15.43,7.4-23.15v-11.58c3.69-19.3,7.39-34.74,7.39-54v-7.72l11.1-38.59h3.69c3.7-3.86,3.7-7.72,3.7-11.58h-3.7a30.94,30.94,0,0,1,7.4-30.88c-7.4-19.3-18.49-34.74-33.28-38.6Zm-3624-1065.26v-7.72l-7.4-7.72-7.39,7.72-11.1,23.16c0,11.58-11.09,23.15-11.09,34.73v7.72h3.7ZM3895.6,2031.57h0q16.65-23.16,11.1-46.31c0-7.72,0-15.44,7.39-19.3h3.7v-7.72l-7.39-7.72h-3.7c-3.7,3.86-7.4,11.58-11.1,11.58s-3.69,3.86-3.69,11.58v11.58c-3.7,15.44-3.7,30.87,3.69,46.31ZM486.08,3363.16c-3.7,0,0,7.72,0,11.58l29.58,30.87h3.7c-7.4-11.58-11.09-23.16-7.4-27a27.66,27.66,0,0,1-18.49-7.72ZM3928.89,1996.84h0c3.69-7.72,3.69-15.44,3.69-23.16-11.09,3.86-11.09,3.86-11.09,23.16s3.7,3.86,7.4,0Z" />
        <path class="cls-1"
          d="M3943.68,2278.59c3.69-3.86,3.69-11.58,3.69-19.3,0-3.86-3.69-7.72-3.69-3.86h-7.4v7.72c0,15.44,3.7,19.3,7.4,15.44Zm3.7-316.49h0l-3.7,23.16C3947.38,1977.54,3947.38,1969.82,3947.38,1962.1ZM630.3,3459.65h-7.4v7.72l7.4,7.72h7.39v-7.72ZM3832.74,2174.38ZM364,3224.21l18.49,19.3-14.79-23.16Z" />
        <path class="cls-1"
          d="M356.65,1047.36H353v0ZM3433.36,792.62,3426,781h-3.7ZM212.43,1136.13c3.7-3.86,3.7-3.86,3.7-7.72v7.72Zm392,2319.66h-3.7c3.7,3.86,7.4,0,3.7,0Zm7.4,27h0Z" />
      </g>
      <ellipse class="cls-2" cx="1755.75" cy="1130.59" rx="79.79" ry="79.49" />
      <rect class="cls-3" x="1734.4" y="871.75" width="446.98" height="136.83" />
      <ellipse class="cls-2" cx="2160.02" cy="1130.59" rx="79.79" ry="79.49" />
      <ellipse class="cls-2" cx="1957.94" cy="1130.59" rx="79.79" ry="79.49" />
      <circle class="cls-4" cx="1786.2" cy="941.55" r="17.3" />
      <circle class="cls-4" cx="1835.54" cy="941.55" r="17.3" />
      <circle class="cls-4" cx="1885.76" cy="941.55" r="17.3" />
      <line class="cls-3" x1="2171.49" y1="910.11" x2="2027.74" y2="911.3" />
      <line class="cls-3" x1="2171.49" y1="959.84" x2="2092.89" y2="963.01" />
      <line class="cls-5" x1="2059.18" y1="960.83" x2="2009.74" y2="960.83" />
      <rect class="cls-3" x="1974.84" y="790.48" width="206.54" height="81.27" />
      <circle class="cls-4" cx="2098.92" cy="831.22" r="8.6" />
      <circle class="cls-4" cx="2123.34" cy="831.22" r="8.6" />
      <circle class="cls-4" cx="2148.36" cy="831.22" r="8.6" />
      <ellipse class="cls-6" cx="2160.02" cy="1130.59" rx="22.94" ry="22.84" />
      <ellipse class="cls-6" cx="1957.94" cy="1130.59" rx="22.94" ry="22.84" />
      <ellipse class="cls-6" cx="1755.75" cy="1130.59" rx="22.94" ry="22.84" />
      <line class="cls-3" x1="1813.59" y1="871.75" x2="1813.59" y2="714.75" />
      <line class="cls-3" x1="1758.32" y1="704.27" x2="1871.03" y2="704.27" />
      <line class="cls-3" x1="2134.62" y1="790.48" x2="2134.62" y2="739.96" />
      <rect class="cls-7" x="2101.4" y="609.16" width="68.61" height="121.41" />
      <line class="cls-8" x1="2037.63" y1="822.61" x2="2037.63" y2="853.56" />
      <line class="cls-8" x1="2001.64" y1="822.61" x2="2001.64" y2="853.56" />
      <line class="cls-8" x1="2020.22" y1="823.5" x2="2020.22" y2="854.45" />
      <rect class="cls-9" x="1695.64" y="565.06" width="235.31" height="106.28" />
      <line class="cls-3" x1="1925.11" y1="602.53" x2="1811.32" y2="602.53" />
      <circle class="cls-4" cx="1844.63" cy="641.69" r="8.6" />
      <circle class="cls-4" cx="1869.15" cy="641.69" r="8.6" />
      <circle class="cls-4" cx="1894.07" cy="641.69" r="8.6" />
      <ellipse class="cls-4" cx="1745.67" cy="616.97" rx="22.94" ry="22.84" />
      <circle class="cls-4" cx="1819.92" cy="641.69" r="8.6" />
      <line class="cls-9" x1="1509.17" y1="965.97" x2="1426.32" y2="964" />
      <line class="cls-9" x1="1425.63" y1="1009.87" x2="1426.32" y2="973.88" />
      <path class="cls-10" d="M1537.65,1041.81l-34.81,13.94" />
      <line class="cls-9" x1="1509.17" y1="965.97" x2="1537.65" y2="1041.81" />
      <line class="cls-9" x1="1592.02" y1="844.27" x2="1507.49" y2="964.79" />
      <line class="cls-9" x1="1734.4" y1="1004.14" x2="1596.37" y2="844.46" />
      <ellipse class="cls-4" cx="1594" cy="846.34" rx="22.94" ry="22.84" />
      <path class="cls-11"
        d="M1171.54,2370.47h-1.68c0,46.18-1.88,94.23,0,142.28,1.87,59.32,5.53,118.64,9.19,177.37,0,20.36,5.64,25.9,24,29.66a480.13,480.13,0,0,0,114.58,11.07c99.76-3.66,199.52,3.76,299.38,0,40.63-1.78,59.32,1.88,99.76-5.54,36.87-7.41,49.43-27.68,49.43-83.14a747,747,0,0,1-1.78-92.35c0-61-42.51-81.27-79.09-79.09-25.91,1.88-149.69-1.78-199.52-1.78-83.15,1.78-70.2,12.85-70.2-74,0-70.19,1.78-160.76,1.78-232.83,0-38.76,3.76-51.71,40.64-51.71h231c37,5.54,62.88-20.37,62.88-59.32s3.66-40.64,3.66-79.1l-5.53-55.36c-3.66-31.44-14.74-42.52-46.18-42.52-20.36,0-40.63,1.88-61,3.66-79.09,5.54-116.37-5.53-194,0-25.9,0-29.66-3.66-31.44-27.68-7.41-72.08,0-151.47,7.42-223.54,1.88-29.66,9.19-35.1,37-37l260.52-1.88c35.1-3.66,46.17-1.78,44.3-36.88-3.66-53.58,1.87-108.75-3.66-162.64-3.66-29.66-13-35.09-46.17-35.09-55.47,1.87-68.42,1.87-123.79,5.53-55.46,1.88-276.83,1.88-330.81,1.88-77.51,0-83.15-5.54-84.93,89-3.76,73.86-1.88,149.59-1.88,225.42C1175.19,1803.17,1167.78,2267.06,1171.54,2370.47Z" />
      <path class="cls-12"
        d="M2726.15,2703.86c-14.83-55.47-120.13-251.32-144.15-299.28-16.61-37-127.54-251.32-131.2-267.93-3.66-7.42,24-20.37,27.68-25.9,89-79.1,168.08-160.76,184.79-284.55,18.48-121.9-9.2-255-89-352.86a325.4,325.4,0,0,0-234.61-120.13c-57.35-3.65-112.71,1.88-170.06,0-49.43-1.87-84.92-1.87-148.3-1.87-29.66,0-48,16.71-49.43,48.05v22.14c-3.76,142.27,0,284.55,1.78,425.14,0,214.35-3.66,779.68-3.66,860.95,0,24,3.66,29.66,25.9,29.66,12.95,0,27.69,1.87,40.64,1.87,51.71,0,83.15-1.87,136.73-1.87,40.64,0,25.81-66.44,25.81-138.42h0c0-48.05,0-351.08,1.88-375.11,1.87-5.53,5.53-16.61,12.95-16.61a12.37,12.37,0,0,1,13,9.2c73.85,144.15,138.42,288.3,205,428.69,9.3,20.37,29.66,79.1,35.1,85,7.42,11.07,20.37,7.31,31.44,7.31l203.28,1.88C2726.15,2739,2732,2724.23,2726.15,2703.86ZM2389.3,1916.17c-24,40.64-64.66,64.66-110.83,77.61-27.78,7.42-79.1,16.61-81.37-27.68,0-29.66-1.78-86.9-1.78-86.9l1.78-186.57c1.88-27.78-7.32-83.15,18.49-103.51,35.1-25.81,107.17,0,138.41,22.14,92.55,63.38,85.23,218.11,35.3,304.91Z" />
      <path class="cls-13"
        d="M971.35,3168.9a14.74,14.74,0,0,0,3.85,6.46,44.92,44.92,0,0,0,20.08,10.73,112,112,0,0,0,25.18,3.3h4.4a161,161,0,0,0,21.6-1.51l7.84-1,7-1.1,7.57-1.24a17.22,17.22,0,0,1,5.23.82h1.37a11.52,11.52,0,0,0,4.82,0l13.75-2.47,12.93-2.06c3.17,0,6.33-1.11,9.5-1.79a96.13,96.13,0,0,0,12.65-3.86,56.39,56.39,0,0,0,17.75-11,19.08,19.08,0,0,0,3.3-3.3,45.42,45.42,0,0,0,6-7.84c1.79-2.89,3.44-5.92,5-8.94a6.12,6.12,0,0,1-2.76,0l-1-.69h0a3.69,3.69,0,0,1-.69-1.24,6.37,6.37,0,0,1,0-1.38v-2.2a13.47,13.47,0,0,1,0-2.2,7.68,7.68,0,0,0-2.2-4h-2.2a6.71,6.71,0,0,1-3.85-1.51l-2.06-1.93-2.48-3-4.54-5.64h0a11.89,11.89,0,0,0-5.64-3.72l-6.19,1.79c-4.68,1.1-9.36,2.06-13.76,2.75q-4.23.62-8.39,1.65a56.26,56.26,0,0,0-10.87,3.86h-22.14l-15.55,1.92a162.11,162.11,0,0,1-17.06,1.24,93.38,93.38,0,0,1-14.58,0l-8.25-1.1a136.19,136.19,0,0,1,9.35-20.22c3.58-6.33,7.29-12.38,11.42-18.44h0a31.49,31.49,0,0,0,10.59,1.65h5.23a26.06,26.06,0,0,1,5.36,1.38h0a20.62,20.62,0,0,1,9.08-1.1h1a17.43,17.43,0,0,0,8-1.24h0a4.84,4.84,0,0,0,1.65.83h3.71a59.23,59.23,0,0,0,17.47-2.07l2.06-.68a75.77,75.77,0,0,0,12.94-5.37,133.75,133.75,0,0,0,13.75-8.25l13.76-8.95a13.71,13.71,0,0,0,1.24-5.5,11.55,11.55,0,0,0,0-2.2,30.41,30.41,0,0,0-2.34-7h-2.34a10.59,10.59,0,0,1-4.82-1.52l-2.33-1.65a23,23,0,0,1-3.44-3c-1.93-1.93-3.85-3.86-5.64-5.92l-1.52-1.65a23.77,23.77,0,0,0-4.12-3.3h0a2.84,2.84,0,0,1,0-2.07,2.47,2.47,0,0,0,0-2.33c-11.15,0-22.43,1.23-33.57,2.2a184.78,184.78,0,0,1-20.91.82,51.92,51.92,0,0,1-10.32-.69,16.25,16.25,0,0,1,0-2.61,16.44,16.44,0,0,1,0-3.71v-.69a14.67,14.67,0,0,0,0-2.48,21.64,21.64,0,0,0-1.23-4.26l7.15-1.93a15.21,15.21,0,0,0,6.19-3.44h1.93a13.72,13.72,0,0,0,5,0l2.75-.68h7a13.8,13.8,0,0,1,5,1,25.87,25.87,0,0,1,3.3-1.93,67.24,67.24,0,0,1,13.76-6.19,178.65,178.65,0,0,1,18-4.26l17.47-2.75a100,100,0,0,0,16.23-4.13,53.08,53.08,0,0,0,14.58-7.7,36.87,36.87,0,0,0,7.15-6.74,45.43,45.43,0,0,0,5.09-7.3,22.65,22.65,0,0,1-.68-4.26,7.16,7.16,0,0,1,0-2.61v-2.62a30.28,30.28,0,0,0,0-4.26l-2.07-1a73.89,73.89,0,0,1-12-7,36.63,36.63,0,0,1-10.46-11.56,3.29,3.29,0,0,1,0,1.65h0a2,2,0,0,1-1.24,0h-3.85v-.13h0v1.78a3.71,3.71,0,0,1-2.75-1,4.89,4.89,0,0,1-1-1.38h-2.2a1.1,1.1,0,0,1-1.11-1l-18,2.89-12.24,1.65-6.47.69-18.7,2.61h-3q-11,1.65-21.87,4.13c-8.53,1.92-18.16,4.54-28.89,8l-8.81,1.79-8.25,1.65-5,1.1a85.28,85.28,0,0,0-10,3,53.19,53.19,0,0,0-12.52,6.33h0a34.61,34.61,0,0,0-9.36,9.63v1.1a71.17,71.17,0,0,1,2.34,12.11c0,4.4,1.24,8.66,2.07,12.93a77.55,77.55,0,0,0,3.85,12.65,36.64,36.64,0,0,0,3.3,6.06,46.93,46.93,0,0,0,5,5.5l-2.48,6.46a74.64,74.64,0,0,1-3.43,7.57l-6.19,12.24c-2.07,4-3.86,8.12-5.64,12.38l-2.07,5c-1.1,2.89-2.06,5.77-3,8.8a3.2,3.2,0,0,0-2.89,0,1.94,1.94,0,0,0,0,.83h0a2.64,2.64,0,0,1-1.38,1.65h-1.1a7.87,7.87,0,0,1,0,2.47,11.82,11.82,0,0,1,0,3,23.93,23.93,0,0,1-2.34,5.09l-3,5.23a26.43,26.43,0,0,0-2.21,5.78,17,17,0,0,0,0,2.47,49.54,49.54,0,0,0,0,10,115.58,115.58,0,0,0,1.65,13.76c0,4.54,1.52,9.08,2.34,13.76s.83,4.81,1.1,6.87a25.92,25.92,0,0,1,0,4.68A11.3,11.3,0,0,1,971.35,3168.9Z" />
      <path class="cls-13"
        d="M1197.23,3046.6a78.31,78.31,0,0,0,1.23,13.76,21.41,21.41,0,0,0,2.62,7.56v1.24a12.26,12.26,0,0,1,1,5.92v8.39a29.73,29.73,0,0,0,1,9.08c.83,6.33,2.07,12.65,3.44,19.12s3,13.07,4.41,19.67l2.06,9.49c0,2.89,1,5.92,1.51,8.81a2.76,2.76,0,0,1,2.07,1.24v.82h0l1.1,2.06a16.23,16.23,0,0,1,.82,2.34,12.64,12.64,0,0,1,.83,2.75v4a24,24,0,0,1,0,3.17,19.05,19.05,0,0,1,0,3.85h0a9,9,0,0,1,4.26,2.48l1,1a28.35,28.35,0,0,1,2.76,3l3.57,4.54h0a13.87,13.87,0,0,0,3.85,3.43l1,.69a23.4,23.4,0,0,0,10.45,3.44h2.34a22.43,22.43,0,0,0,9.36-2.34,36.92,36.92,0,0,0,5.08-2.89,31.65,31.65,0,0,0,5.51-5.09,37.41,37.41,0,0,0,4.4-6.05,46.19,46.19,0,0,0,3.58-7.43,26.47,26.47,0,0,1,0-4.54v-3.44a15.22,15.22,0,0,0,0-3.44h0a37.84,37.84,0,0,0,0-4.26c2.47-2.34,5-4.81,7.29-7.43,2.57-2.81,5-5.75,7.29-8.8.82-1.24,1.79-2.48,2.47-3.72a35.42,35.42,0,0,0,5.37-16.64h0a3.16,3.16,0,0,0,2.75-1.24l1.65-2.75v-.69l1.38-1.65a1.31,1.31,0,0,1,.68,0,5.76,5.76,0,0,1,2.34,0,181.28,181.28,0,0,1,17.2-31.78c6.88-9.9,13.76-19.53,21.32-28.89s14.58-18,22.29-26.68l6.6-8c4.68-5.5,9.22-11.14,13.76-16.92a16.74,16.74,0,0,1,2.75-10.87,31.45,31.45,0,0,0,4.26-10.32h-1.92a8.92,8.92,0,0,1,0-1.79,1.63,1.63,0,0,1,0-.82v-3.85h0a8.92,8.92,0,0,0,0-1.79,4.84,4.84,0,0,0-.83-1.65l-3-8-1.65-4.4v-1.24c0-.83-.68-1.51-1-2.34h0l-1.79-3.85-.69-1.93h-1.23a22.91,22.91,0,0,1-6.19,0h0a28.61,28.61,0,0,1-4.54-1.37l-4.68-2.07h0a22.53,22.53,0,0,0-3.85-1.1h-2.62q-12.51,12.39-22.28,23.11c-3.72,4.13-7.29,8.26-10.73,12.52l-6.74,8.26c-5.78,7.42-11.28,15-16.65,22.69h0c-7,10.32-13.75,20.78-20.36,31.37l-4.12,6.74c-6.06,9.49-12.94,20-20.91,31.5-.83-2.89-1.52-5.91-2.21-9.22a66.71,66.71,0,0,1-1-8.11l-.82-10.18-.83-10.87c0-7.43-1.24-15-2.06-22.42v-3.58a114.59,114.59,0,0,0-3.58-18.16v-1.24a74.55,74.55,0,0,0-7.7-17.6,38.84,38.84,0,0,0-13.76-13.76,6.25,6.25,0,0,0,0-2.2v-.69a20.59,20.59,0,0,0-.69-2.89,18.91,18.91,0,0,0-1.51-2.89,25.05,25.05,0,0,0-2.2-3,19.85,19.85,0,0,0-6.05-4.68l-2.62-1.24a32.45,32.45,0,0,0-5.23-1.37h0a55.67,55.67,0,0,1-7.56,6.32,13.94,13.94,0,0,0-3.58,3.44,22.82,22.82,0,0,0-3,4.41h0a24.05,24.05,0,0,0-1.79,7.42v7.3a139.39,139.39,0,0,0,.82,14.58v4.81c0,4.95,1,9.91,1.52,14.86a29,29,0,0,0,.68,7.56,108.72,108.72,0,0,1,0,11.7v19.53A25.46,25.46,0,0,1,1197.23,3046.6Z" />
      <path class="cls-13"
        d="M1387.75,3168.9a14.86,14.86,0,0,0,3.86,6.46,44.92,44.92,0,0,0,20.08,10.73,112,112,0,0,0,25.31,3.3h4.27a161.85,161.85,0,0,0,22-1l7.7-1,7-1.1,7.56-1.24a16.58,16.58,0,0,1,5.23.82h1.37a11.52,11.52,0,0,0,4.82,0l13.76-2.47,12.93-2.06c3.3,0,6.46-1.1,9.63-1.79a102.71,102.71,0,0,0,12.51-3.85,58.85,58.85,0,0,0,17.89-11,36.71,36.71,0,0,0,3.3-3.3,53.73,53.73,0,0,0,5.92-7.84,82.84,82.84,0,0,0,4.95-8.94,5.28,5.28,0,0,1-2.62,0,2.54,2.54,0,0,1-1-.69h0a3.69,3.69,0,0,1,0-1.24,5.31,5.31,0,0,1,0-1.38,10.11,10.11,0,0,1,0-2.2V3137a7.68,7.68,0,0,0-2.2-4h-2.2a6.71,6.71,0,0,1-3.85-1.51l-1.93-1.93a26.79,26.79,0,0,1-2.61-3c-1.38-1.93-2.89-3.72-4.41-5.64h0a11.89,11.89,0,0,0-5.64-3.72l-6.19,1.79c-4.67,1.1-9.35,2.06-13.75,2.75-2.75,0-5.64,1-8.39,1.65a60.57,60.57,0,0,0-10.87,3.86h-22l-15.55,1.92a167.34,167.34,0,0,1-17.19,1.24,90.29,90.29,0,0,1-13.76,0l-8.39-1.1a151.74,151.74,0,0,1,9.35-20.22c3.58-6.33,7.43-12.38,11.42-18.44h0a31.06,31.06,0,0,0,10.6,1.65h5.22a26.15,26.15,0,0,1,5.37,1.38h0a19.69,19.69,0,0,1,8.94-1.1h1a17,17,0,0,0,8-1.24h0l1.65.83h3.72a59.23,59.23,0,0,0,17.47-2.07l2.06-.68A75.33,75.33,0,0,0,1533,3084a119,119,0,0,0,13.76-8.25c4.26-3,8.66-5.92,13.75-8.94a15.55,15.55,0,0,0,1.1-5.51,11.55,11.55,0,0,0,0-2.2,24.72,24.72,0,0,0-2.33-7h-2.21a9.48,9.48,0,0,1-4.81-1.52,13.54,13.54,0,0,1-2.34-1.65,25.11,25.11,0,0,1-3.58-3c-1.92-1.93-3.71-3.86-5.5-5.92l-1.65-1.65a23.93,23.93,0,0,0-4.13-3.3h0a2.92,2.92,0,0,1,.69-2.06,2.49,2.49,0,0,0,0-2.34c-11.14,0-22.28,1.23-33.56,2.2a182.48,182.48,0,0,1-20.91.82A52.67,52.67,0,0,1,1471,3033a14.87,14.87,0,0,1-.69-2.62,32.8,32.8,0,0,1,0-3.71V3026a14.67,14.67,0,0,0,0-2.48,15.6,15.6,0,0,0-1.37-4.26l7.29-1.93a16.16,16.16,0,0,0,6.19-3.44h1.79a15,15,0,0,0,5.09,0l2.75-.68h7a13.75,13.75,0,0,1,4.82,1l3.3-1.93a70.86,70.86,0,0,1,14.44-6.19,179.94,179.94,0,0,1,18-4.26l17.47-2.75a99.9,99.9,0,0,0,16.24-4.13,55.9,55.9,0,0,0,14.72-7.7,36.11,36.11,0,0,0,7-6.74,45.81,45.81,0,0,0,5.23-7.3,14.66,14.66,0,0,1-.69-4.26,14.22,14.22,0,0,1,0-2.61v-2.62a23.31,23.31,0,0,0,0-4.26l-2.2-1a88,88,0,0,1-12-7,36.72,36.72,0,0,1-10.45-11.56,1.67,1.67,0,0,1,0,1.65h0a1.76,1.76,0,0,1-1.24,0h-3.85v-.68h0a1.31,1.31,0,0,1,0,.68v1.1a3.7,3.7,0,0,1-2.75-1,2.89,2.89,0,0,1-.83-1.38h-2.2a1.23,1.23,0,0,1-1.24-1l-18,2.89-12.24,1.65-6.47.69-18.71,2.61h-3c-7.29,1.1-14.58,2.48-21.74,4.13s-18.16,4.54-28.89,8L1445,2961c-2.75.68-5.64,1.1-8.39,1.65l-4.95,1.1a83.26,83.26,0,0,0-9.91,3,55.26,55.26,0,0,0-12.65,6.33h0a34.61,34.61,0,0,0-9.36,9.63v1.1a61.7,61.7,0,0,1,2.48,12.11c0,4.4,1.1,8.66,1.92,12.93a78.58,78.58,0,0,0,3.86,12.65,38.07,38.07,0,0,0,3.43,6.06,36.54,36.54,0,0,0,4.82,5.5,50.93,50.93,0,0,1-2.48,6.46,73.71,73.71,0,0,1-3.3,7.57l-6.33,12.24c-1.92,4-3.85,8.12-5.64,12.38-.68,1.66-1.37,3.31-1.92,5s-2.2,5.77-3.17,8.8h-2.75c-.55,0,0,0,0,.83h0a3.22,3.22,0,0,1-1.37,1.65h-1.1a17,17,0,0,1,0,2.47,11.82,11.82,0,0,1,0,3,25,25,0,0,1-2.48,5.09c-1,1.79-1.93,3.58-3,5.23a20.78,20.78,0,0,0-2.06,5.78v2.47a48.13,48.13,0,0,0,0,10,113.55,113.55,0,0,0,1.65,13.76c.83,4.54,1.51,9.08,2.34,13.76s.82,4.81,1.24,6.87,0,3.17.69,4.68A11,11,0,0,1,1387.75,3168.9Z" />
      <path class="cls-13"
        d="M1588.46,3149.78h3.71a29.54,29.54,0,0,1-1.65-9.36,23.31,23.31,0,0,1,0-4.26c.83-4,1.65-8.12,2.89-12.11a92.83,92.83,0,0,0,2.34-9.35v-2.07a16.44,16.44,0,0,0,0-3.71,18.09,18.09,0,0,0-.69-5.37l-.82-2.47h0a1.51,1.51,0,0,0,1.92-.83h0a6.36,6.36,0,0,0,0-1.51,7.79,7.79,0,0,0,0-1.93v-1.23a19,19,0,0,0,0-4,10.23,10.23,0,0,0,0-2.07,10.13,10.13,0,0,0,0-2.06,18.53,18.53,0,0,0,0-3.16,134.73,134.73,0,0,0,6.88-21.46c1.65-7.43,3.17-14.72,4.54-22s2.89-13.75,4.54-21.18a117,117,0,0,1,5.92-17.88v-1.38h2.61a20.53,20.53,0,0,1,4.81.69l2.48.69a14.6,14.6,0,0,1,6.6,4h0a86.57,86.57,0,0,0,17.47-18l1.11-1.37c5.22-7.57,10.73-15,16.23-22.42a107.3,107.3,0,0,1,18.71-19.26,44.15,44.15,0,0,1,16.64-8.39,52.44,52.44,0,0,1,9.22-1.66l8.53,5.92,9.49,6.33a55.07,55.07,0,0,1,16.51,16.23l5.22,3.58c1.66,1.24,3.44,2.34,5.23,3.44v5.09a37.56,37.56,0,0,1,7.84,10.18,113.26,113.26,0,0,1,5.78,12.51c1.65,4.41,3.3,8.81,4.82,13.76a54.29,54.29,0,0,0,3.71,9.22l1.65,3.3a11,11,0,0,0,0,3.44,25.36,25.36,0,0,0,0,3,8.92,8.92,0,0,1,0,1.79,6.51,6.51,0,0,1,0,1.65,19.15,19.15,0,0,1,0,4.54,46.28,46.28,0,0,1-11.55,28.62,81.43,81.43,0,0,1-21.33,16.09l-3.57,1.79a230,230,0,0,1-31.09,11.69c-5.92,1.79-11.7,3.72-17.47,5.78s-8.4,3-12.38,4.82h0a1.5,1.5,0,0,0,1.51.82c1,0,1.24,0,.82,1.93h0l4.82,2.89,10.73,6.87,5.5,3.44,5,2.75a64.37,64.37,0,0,0,7.16,3.17l3.57,1.1,11.7,2.89,4.67,1.1,4.82,1.1,8.39,2.06,3,.69,5.22,1.24a46.9,46.9,0,0,0,5.37,1.1l6.19,1.1h3.85l10.46,1.24h4a27.67,27.67,0,0,1,6,8.66,42.14,42.14,0,0,1,2.89,7.84v8.67a23.8,23.8,0,0,1,0,3.16,27.94,27.94,0,0,1,0,3.17,12.47,12.47,0,0,1-2.2,4h0a1.38,1.38,0,0,0,1.65.69h3.16a18.19,18.19,0,0,0-4,4l-3.44,4.81a22.26,22.26,0,0,1-3.85,4.26,8.8,8.8,0,0,1-4,2.21h-1.51a52.83,52.83,0,0,1-30.95,0c-4.27-1-8.53-2.21-12.66-3.44-9.9-2.89-21.18-6.74-34-11.56h-1.37c-6.47-2.47-12.11-4.68-16.92-6.88l-6.61-2.89a134.43,134.43,0,0,1-15.68-8.66,109.07,109.07,0,0,1-12.52-8.94l-4.54-4-4-3.58-4.54-4.13h0a1.17,1.17,0,0,0,0,1v.68h0a85,85,0,0,1-5.22,21.88A65.58,65.58,0,0,1,1633,3173a79.17,79.17,0,0,1-5.36,7.84h-1.38a8.74,8.74,0,0,0-4.81,0l-1.1.69a15,15,0,0,1-2.62,2.48l-1.92,1.24h-1.11a7.43,7.43,0,0,1-3.57,0h0L1609,3184h-.83l-1.65-1.24-1.37-.83H1604a9,9,0,0,0-3.43,0h-.83l-2.06-5.91a3.57,3.57,0,0,0-2.62-2.2,6.84,6.84,0,0,0-2.47,0h0a6.71,6.71,0,0,0,0-1.79,9.15,9.15,0,0,0,0-3.3h0a22.73,22.73,0,0,0,0-2.61v-1.38c0-1.24-.83-2.48-1.24-3.71h0a8.28,8.28,0,0,1,0-4.68c-1.1,0-1.93,0-2.75-1.93s0,0,0-.69S1589.56,3151.56,1588.46,3149.78Zm118.17-145.41a72.93,72.93,0,0,1-9.77,11.56l-10.59,10.73a79.7,79.7,0,0,0-9.22,12.1,46.12,46.12,0,0,0-3.85,8.39,43.83,43.83,0,0,0-1.79,7.29,124.44,124.44,0,0,0,17.2-3.57c4.12-1.24,8.25-2.76,12.38-4.41l15-6.05,13.76-5.78a34.69,34.69,0,0,0-8.81-20.08,39.47,39.47,0,0,0-13.75-9.77Z" />
      <path class="cls-14"
        d="M1810.76,3149.78h3.72a29,29,0,0,1-1.65-9.36,21.66,21.66,0,0,1,0-4.26c.82-4,1.79-8.12,2.89-12.11s1.65-6.19,2.33-9.35a10.23,10.23,0,0,0,0-2.07,16.44,16.44,0,0,0,0-3.71,18.12,18.12,0,0,0-.82-5.37l-.83-2.47h0a1.52,1.52,0,0,0,1.93-.83h0a6.88,6.88,0,0,0,.69-1.51v-1.93a4.22,4.22,0,0,0,0-1.23,20.46,20.46,0,0,0,0-4v-2.07a10.13,10.13,0,0,1,0-2.06v-3.16a134.73,134.73,0,0,0,6.88-21.46c1.65-7.43,3.16-14.72,4.54-22s2.88-13.75,4.54-21.18a118.11,118.11,0,0,1,5.91-17.88l.69-1.38h2.47a20.62,20.62,0,0,1,4.82.69l2.61.69a14.74,14.74,0,0,1,6.47,4h0a90.47,90.47,0,0,0,17.47-18,5.05,5.05,0,0,1,1-1.37c5.37-7.57,10.73-15,16.23-22.42a112.57,112.57,0,0,1,18.71-19.26,45.31,45.31,0,0,1,16.65-8.39,52.27,52.27,0,0,1,9.22-1.66l8.52,5.92,9.63,6.33a55.66,55.66,0,0,1,16.37,16.23l5.23,3.58c1.65,1.24,3.44,2.34,5.23,3.44v5.09a38,38,0,0,1,7.84,10.18,113.26,113.26,0,0,1,5.78,12.51c1.65,4.41,3.3,8.81,4.81,13.76a55,55,0,0,0,3.72,9.22l1.65,3.3a7.68,7.68,0,0,0,0,3.44,7.88,7.88,0,0,0,.69,3v3.44a38.2,38.2,0,0,1,0,4.54,45.43,45.43,0,0,1-11.56,28.62,81.38,81.38,0,0,1-21.32,16.09l-3.58,1.79a230,230,0,0,1-31.09,11.69c-5.91,1.79-11.69,3.72-17.47,5.78s-8.25,3-12.38,4.82h0s0,.82,1.38.82,1.23,0,.82,1.93h0l4.82,2.89,10.86,6.87,5.37,3.44,5,2.75a67.19,67.19,0,0,0,7.29,3.17l3.44,1.1,11.69,2.89,4.68,1.1,5,1.1,8.26,2.06,3,.69,5.23,1.24a46.9,46.9,0,0,0,5.37,1.1l6.19,1.1h3.85l10.45,1.24h4a27.54,27.54,0,0,1,6.06,8.66,41.41,41.41,0,0,1,2.88,7.84,16.3,16.3,0,0,1,0,2.21,29.22,29.22,0,0,1,0,4.95,5.46,5.46,0,0,1,0,1.51,23.8,23.8,0,0,1,0,3.16,12,12,0,0,1,0,3.17,12.28,12.28,0,0,1-2.2,4h0a1.53,1.53,0,0,0,1.65.69h3.17a18,18,0,0,0-4,4l-3.3,4.81a39,39,0,0,1-3.85,4.26,10.11,10.11,0,0,1-4.13,2.21h-1.51a52.56,52.56,0,0,1-30.82,0c-4.4-1-8.53-2.21-12.79-3.44-9.77-2.89-21.19-6.74-34-11.56h-1.24c-6.46-2.47-12.24-4.68-17.06-6.88l-6.46-2.89a135.46,135.46,0,0,1-15.82-8.66,96.35,96.35,0,0,1-12.38-8.94l-4.54-4,.41-.83-4.54-4.13h0a1.1,1.1,0,0,0,0,1,1.16,1.16,0,0,1,0,.69,1.61,1.61,0,0,1-.69,0h0a84.5,84.5,0,0,1-5.23,21.87,64.6,64.6,0,0,1-4.81,9.22,79.91,79.91,0,0,1-5.37,7.84h-1.23a9.09,9.09,0,0,0-5,0l-1.1.68a11,11,0,0,1-2.61,2.48l-1.93,1.24h-1a7.76,7.76,0,0,1-3.71,0h0l-2.07-1.24h-1l-1.65-1.24-1.38-.82a1.73,1.73,0,0,0-1.1,0,8.66,8.66,0,0,0-3.44,0h-.82l-2.06-5.92a3.6,3.6,0,0,0-2.48-2.2,8.16,8.16,0,0,0-2.61,0h0a7.65,7.65,0,0,0,0-1.79,9.15,9.15,0,0,0,0-3.3h0a22.73,22.73,0,0,0,0-2.61v-1.38c0-1.24-.83-2.47-1.24-3.71h0a8.28,8.28,0,0,1,0-4.68c-1,0-1.93,0-2.75-1.93v-.68A23.86,23.86,0,0,1,1810.76,3149.78Zm118.17-145.41a72.4,72.4,0,0,1-9.77,11.56l-10.45,10.73a72.63,72.63,0,0,0-9.35,12.1,45.5,45.5,0,0,0-3.86,8.39,63,63,0,0,0-1.79,7.29,124.44,124.44,0,0,0,17.2-3.57c4.13-1.24,8.25-2.76,12.38-4.41l15-6.05,13.75-5.78a35.45,35.45,0,0,0-8.66-20.08,41.41,41.41,0,0,0-13.76-9.77Z" />
      <path class="cls-14"
        d="M2143.26,2968.33v-4.27a42.31,42.31,0,0,0,8-4.81,16.62,16.62,0,0,0,2.75-2.62l1.78-2.2,5.78-7.56v-.69h12.66a39.39,39.39,0,0,1,5.36-8h0l2.07-1.92,2.61-2.07,3-2.06a27.47,27.47,0,0,0,10.73,3.16,16.68,16.68,0,0,1,8,3l2.47,2.2a7.93,7.93,0,0,0,0,2.48,9.56,9.56,0,0,0,1.93,3.71,30.27,30.27,0,0,0,4.4,4l4.68,3.85a10.51,10.51,0,0,1,2.34,3.44,13.06,13.06,0,0,1,0,2.34,3.17,3.17,0,0,0,1.78,0h0a2,2,0,0,1,1.79,0v4.26a8.32,8.32,0,0,0,1,1.93v1.1a10.44,10.44,0,0,1,1,1.65l.82,1.38a8.48,8.48,0,0,0,.69,1.65v1.79h0a51.68,51.68,0,0,0-3,8.52,13.8,13.8,0,0,1-1.52,3.17,8.88,8.88,0,0,1-4,3v1a2.06,2.06,0,0,0,1.93,1.92h1.1a2.76,2.76,0,0,1,1.24,2.21v.82a13.06,13.06,0,0,1,0,2.34,5.91,5.91,0,0,1-.83,1.93,298.55,298.55,0,0,1,17.06,33,302.71,302.71,0,0,0,17.47,33.15,26.11,26.11,0,0,0,0,3.31,20.9,20.9,0,0,0,0,5.91,65.92,65.92,0,0,0,3,8.81c1.24,3,2.34,5.91,3.57,8.8a40.62,40.62,0,0,1,2.2,8.12h0v5.22a43.77,43.77,0,0,1,0,6.06v1.1a63,63,0,0,1-2.75,12.51,53.09,53.09,0,0,1-5.36,11.29,24.87,24.87,0,0,1-7.71,7.84,42.32,42.32,0,0,1-13.75,11,72.77,72.77,0,0,0-14.72,9.91,38.83,38.83,0,0,1-10,3.85l-9.77,2.2h-1.38l-4.4,2.47-4.4,2.07-1.65.69q-6.06,2.48-12.38,4.54A110.19,110.19,0,0,1,2166,3184a36.39,36.39,0,0,1-11.41,0,128.85,128.85,0,0,1-16.1,4.68l-7.43,1.37a41.63,41.63,0,0,1-5.91,0,77.49,77.49,0,0,1-20.91-2.2,28.84,28.84,0,0,0-8.39.83,65.9,65.9,0,0,1-18.44-2.07,69,69,0,0,1-20.77-9.76l-1-.69a72.83,72.83,0,0,1-16.37-16.78A93,93,0,0,1,2028,3138.5c0-4.27-1-8.67-1.1-12.93a105.09,105.09,0,0,1,1.24-21.19c0-2.48,1-5,1.51-7.29a131.9,131.9,0,0,1,13.76-33.43v-1a209.88,209.88,0,0,1,20.63-29.58l16.92-20.08,5.5-6.47h.83a3.87,3.87,0,0,0,2.47,0h0a11.3,11.3,0,0,0,1.93-1.79,2.54,2.54,0,0,0,.69-1l1.92-2.48.83-.82a10.61,10.61,0,0,1,2.34-1.93h1.1a13.94,13.94,0,0,1,2.06-3.3,10,10,0,0,1,1.51-1.79l4.68-3.85a43.12,43.12,0,0,0,4.68-3.85,17.49,17.49,0,0,0,2.61-2.89l1.38-2.06a15.73,15.73,0,0,0,5.78-2.48,40.41,40.41,0,0,0,4.67-3.58l4.54-3.71A22.39,22.39,0,0,1,2143.26,2968.33Zm-33.43,108a76.91,76.91,0,0,0,5.64-10.46h0a3.9,3.9,0,0,1,1.92,0h0a2.93,2.93,0,0,0,1.38,0h0a118.3,118.3,0,0,1,20.91-20.5l23.39-18a18.83,18.83,0,0,0,4.54,2.62h0a12.17,12.17,0,0,0,4.4.68h0a7.81,7.81,0,0,0,4-1.1,5.77,5.77,0,0,0,2.34-2.75,10.7,10.7,0,0,0,0-1.79l.82.69a2.6,2.6,0,0,0,3.58,0,9,9,0,0,0,2.75-3.44,191.3,191.3,0,0,1,14.72,27.52,152.93,152.93,0,0,0,15.13,26.41v1.24a24.68,24.68,0,0,0,0,3.44,6.27,6.27,0,0,0,0,1.37,19.2,19.2,0,0,0,2.06,4.95,13.75,13.75,0,0,1-3,8.81,22.24,22.24,0,0,0-4.27,7l-3.3,1.65-21.87,11.56a67.89,67.89,0,0,1-26.28,8H2158a2.6,2.6,0,0,0-1.93,1.79v1.23h-1.65a116.56,116.56,0,0,0-15.82,1.66c-6.6,1.1-13.07,1.92-19.53,2.47a75.86,75.86,0,0,1-8,0,96.42,96.42,0,0,1-11-.69,31.14,31.14,0,0,1-16-6.87h0a52.73,52.73,0,0,1,1-8.4,36.94,36.94,0,0,1,2.61-8.39,75.42,75.42,0,0,1,7.57-13.75c2.89-4.27,5.77-8.53,8.8-12.66A30.58,30.58,0,0,0,2109.83,3076.32Z" />
      <path class="cls-14"
        d="M2300.63,3046.6a66.86,66.86,0,0,0,1.1,13.76,21.59,21.59,0,0,0,2.61,7.56v1.24a12.27,12.27,0,0,1,1,5.92v8.39a29.73,29.73,0,0,0,1,9.08c.83,6.33,2.06,12.65,3.44,19.12s3,13.07,4.4,19.67l2.07,9.49c0,2.89,1,5.92,1.51,8.81a2.73,2.73,0,0,1,2.06,1.24v.82h0l1.1,2.06a16.27,16.27,0,0,1,.83,2.34,12.08,12.08,0,0,1,.82,2.75,7.88,7.88,0,0,0,.69,4,24,24,0,0,1,0,3.17,17.7,17.7,0,0,1,0,3.85h0a9,9,0,0,1,4.27,2.48l1,1a27.24,27.24,0,0,1,2.75,3l3.58,4.54h0a13.73,13.73,0,0,0,3.85,3.43l1,.69a23.44,23.44,0,0,0,10.46,3.44h2.33a22.36,22.36,0,0,0,9.36-2.34,37,37,0,0,0,5.09-2.89,32,32,0,0,0,5.5-5.09,37.41,37.41,0,0,0,4.4-6.05,46.19,46.19,0,0,0,3.58-7.43,28.67,28.67,0,0,1,0-4.54v-3.44a15.22,15.22,0,0,0,0-3.44h0a38.56,38.56,0,0,0-.69-4.26c2.48-2.34,4.95-4.81,7.29-7.43a113.39,113.39,0,0,0,7.29-8.8c.83-1.24,1.79-2.48,2.48-3.72a35.41,35.41,0,0,0,5.36-16.64h0a3.18,3.18,0,0,0,2.76-1.24l1.65-2.75v-.69l1.37-1.65a1.34,1.34,0,0,1,.69,0,5.76,5.76,0,0,1,2.34,0,181.89,181.89,0,0,1,17.19-31.78c6.88-9.9,13.76-19.53,21.33-28.89s14.58-18,22.28-26.68l6.61-8c4.67-5.5,9.21-11.14,13.75-16.92a16.86,16.86,0,0,1,2.75-10.87,31.48,31.48,0,0,0,4.27-10.32h-1.93a8.92,8.92,0,0,1,0-1.79,1.89,1.89,0,0,1,0-.82v-3.85h0a7.65,7.65,0,0,0,0-1.79,4.65,4.65,0,0,0-.82-1.65l-3-8-1.65-4.4v-1.24a2.54,2.54,0,0,0-1-2.34h0l-1.79-3.85-.69-1.93h-1.24a22.91,22.91,0,0,1-6.19,0h0a28.61,28.61,0,0,1-4.54-1.37l-4.68-2.07h0a22,22,0,0,0-3.85-1.1H2465q-12.66,12.39-22.29,23.11c-3.71,4.13-7.29,8.26-10.73,12.52l-6.74,8.26c-5.77,7.42-11.28,15-16.64,22.69h0c-7,10.32-13.76,20.78-20.36,31.37l-4.13,6.74c-6.05,9.49-12.93,20-20.91,31.5-.82-2.89-1.51-5.91-2.2-9.22s0-5.36-1-8.11l-.83-10.18-.82-10.87c0-7.43-1.24-15-2.07-22.42v-3.58a114.56,114.56,0,0,0-3.57-18.16v-1.24a74.58,74.58,0,0,0-7.71-17.6,38.74,38.74,0,0,0-13.75-13.76,6.77,6.77,0,0,0,0-2.2v-.69a23.82,23.82,0,0,0-.69-2.89,19.85,19.85,0,0,0-1.51-2.89,25.13,25.13,0,0,0-2.21-3,19.73,19.73,0,0,0-6.05-4.68l-2.61-1.24a32.45,32.45,0,0,0-5.23-1.37h0a55.15,55.15,0,0,1-7.57,6.32,13.74,13.74,0,0,0-3.57,3.44,22.87,22.87,0,0,0-3,4.41h0a24.64,24.64,0,0,0-1.79,7.42v7.3a136.36,136.36,0,0,0,0,14.58v4.81c0,4.95,1,9.91,1.52,14.86v7.56a114.15,114.15,0,0,1,0,11.7v19.53A8.32,8.32,0,0,1,2300.63,3046.6Z" />
      <path class="cls-14"
        d="M2491,3168.9a14.84,14.84,0,0,0,3.85,6.46,44.76,44.76,0,0,0,20.22,10.73,109.72,109.72,0,0,0,25.18,3.3h4.26a163.07,163.07,0,0,0,21.74-1.51l7.7-1,7-1.1,7.56-1.24a16.58,16.58,0,0,1,5.23.82h1.38a11.47,11.47,0,0,0,4.81,0l14.44-2.47,12.94-2.06c3.3,0,6.46-1.11,9.63-1.79a101,101,0,0,0,12.51-3.86,58.63,58.63,0,0,0,17.89-11,36.71,36.71,0,0,0,3.3-3.3,53,53,0,0,0,5.91-7.84,82.92,82.92,0,0,0,5-8.94,5.28,5.28,0,0,1-2.62,0,2.54,2.54,0,0,1-1-.69h0a3.69,3.69,0,0,1-.69-1.24,5.31,5.31,0,0,1,0-1.38,10.11,10.11,0,0,1,0-2.2v-2.2a7.68,7.68,0,0,0-2.2-4h-2.2a6.71,6.71,0,0,1-3.85-1.51l-1.93-1.93a16.63,16.63,0,0,1-2.47-3l-4.54-5.64h0a12,12,0,0,0-5.64-3.72l-6.19,1.79c-4.68,1.1-9.36,2.06-13.76,2.75a77.44,77.44,0,0,0-8.39,1.65,59.81,59.81,0,0,0-10.87,3.86H2591.3l-15.54,1.92a167.74,167.74,0,0,1-17.2,1.24,89.25,89.25,0,0,1-14.44,0l-8.39-1.1a150.49,150.49,0,0,1,9.35-20.22c3.58-6.33,7.43-12.38,11.42-18.44h0a31,31,0,0,0,10.59,1.65h5.23a26.06,26.06,0,0,1,5.36,1.38h0a19.75,19.75,0,0,1,9-1.1h1a17,17,0,0,0,8-1.24h0l1.65.83h3.71a59.15,59.15,0,0,0,17.47-2.07l2.07-.68a76,76,0,0,0,12.93-5.37,118,118,0,0,0,13.75-8.25c4.27-3,8.67-5.92,13.76-8.95a15.45,15.45,0,0,0,1.1-5.5,11.55,11.55,0,0,0,0-2.2,24.43,24.43,0,0,0-2.34-7h-2.2a9.48,9.48,0,0,1-4.81-1.52,13.17,13.17,0,0,1-2.34-1.65,24.05,24.05,0,0,1-3.58-3c-1.92-1.93-3.71-3.86-5.5-5.92l-1.65-1.65a23.84,23.84,0,0,0-4.13-3.3h0a2.91,2.91,0,0,1,.69-2.07,2.47,2.47,0,0,0,0-2.33c-11.14,0-22.29,1.23-33.57,2.2a182.39,182.39,0,0,1-20.91.82,51.82,51.82,0,0,1-10.31-.69,14.54,14.54,0,0,1-.69-2.61,28.71,28.71,0,0,1,0-3.71v-.69a14.67,14.67,0,0,0,0-2.48,15.29,15.29,0,0,0-1.38-4.26l7.29-1.93a16,16,0,0,0,6.19-3.44h1.79a15,15,0,0,0,5.09,0l2.75-.68h7a13.65,13.65,0,0,1,4.81,1l3.31-1.93a70.62,70.62,0,0,1,14.44-6.19,179.29,179.29,0,0,1,18-4.26l17.47-2.75a97.52,97.52,0,0,0,16.23-4.13,55.59,55.59,0,0,0,14.72-7.7,35.88,35.88,0,0,0,7-6.74,47.11,47.11,0,0,0,5.23-7.3,14.48,14.48,0,0,1,0-4.26,12.65,12.65,0,0,1,0-2.61v-2.62a25.25,25.25,0,0,0,0-4.26l-2.2-1a88,88,0,0,1-12-7,34.79,34.79,0,0,1-10.32-11.56,3.29,3.29,0,0,1,0,1.65h0a1.76,1.76,0,0,1-1.24,0h-3.85v-.13h0a1.13,1.13,0,0,1,0,.68v1.1a3.71,3.71,0,0,1-2.75-1,2.89,2.89,0,0,1-.83-1.38h-2.2a1.22,1.22,0,0,1-1.23-1l-18,2.89-12.24,1.65-6.46.69-18.71,2.61h-3c-7.29,1.1-14.58,2.48-21.73,4.13s-18.16,4.54-28.89,8l-8.81,1.79c-2.75.68-5.64,1.1-8.39,1.65l-4.95,1.1a83.83,83.83,0,0,0-9.91,3,55.46,55.46,0,0,0-12.65,6.33h0a34.61,34.61,0,0,0-9.36,9.63v1.1a60.28,60.28,0,0,1,2.48,12.11c0,4.4,1.1,8.66,1.93,12.93a77.55,77.55,0,0,0,3.85,12.65,38.12,38.12,0,0,0,3.44,6.06,36.47,36.47,0,0,0,4.81,5.5,52.44,52.44,0,0,1-2.47,6.46,73.78,73.78,0,0,1-3.31,7.57l-6.32,12.24c-1.93,4-3.86,8.12-5.64,12.38,0,1.66-1.38,3.31-1.93,5s-2.2,5.77-3.16,8.8h-2.76c-.55,0,0,0,0,.83h0a3.17,3.17,0,0,1-1.37,1.65h-1.1a14.55,14.55,0,0,1,0,2.47,11.82,11.82,0,0,1,0,3,25,25,0,0,1-2.48,5.09c-1,1.79-1.92,3.58-3,5.23a20.48,20.48,0,0,0-2.07,5.78v2.47a49.54,49.54,0,0,0,0,10,113.55,113.55,0,0,0,1.65,13.76c.83,4.54,1.52,9.08,2.34,13.76s.83,4.81,1.24,6.87,0,3.17.69,4.68A11,11,0,0,1,2491,3168.9Z" />
      <path class="cls-14"
        d="M2691.74,3141.6h3.72a29.28,29.28,0,0,1-1.66-9.36,23.31,23.31,0,0,1,0-4.26c.83-4,1.79-8.12,2.89-12.11s1.65-6.19,2.34-9.35a11.81,11.81,0,0,0,0-2.06,16.53,16.53,0,0,0,0-3.72,18,18,0,0,0-.82-5.36l-.83-2.48h0a1.52,1.52,0,0,0,1.93-.82h0a8.33,8.33,0,0,0,.69-1.52v-1.92a4.29,4.29,0,0,0,0-1.24,20.46,20.46,0,0,0,0-4v-2.06a10.23,10.23,0,0,1,0-2.07v-3.16a133.68,133.68,0,0,0,6.87-21.46c1.65-7.43,3.17-14.72,4.54-22s2.89-13.76,4.54-21.19a118.15,118.15,0,0,1,5.92-17.88l.69-1.38H2725a20.69,20.69,0,0,1,4.82.69l2.61.69a15,15,0,0,1,6.47,4h0a90.68,90.68,0,0,0,17.47-18,4.89,4.89,0,0,1,1-1.38c5.36-7.56,10.73-15,16.23-22.42a112.94,112.94,0,0,1,18.71-19.26,45.31,45.31,0,0,1,16.65-8.39,51.41,51.41,0,0,1,9.21-1.65l8.53,5.91,9.63,6.33a55.78,55.78,0,0,1,16.37,16.23l5.23,3.58c1.65,1.24,3.44,2.34,5.23,3.44V2967a38.12,38.12,0,0,1,7.84,10.18,116.31,116.31,0,0,1,5.78,12.52c1.65,4.4,3.3,8.8,4.81,13.75a54.79,54.79,0,0,0,3.71,9.22l1.66,3.3a7.68,7.68,0,0,0,0,3.44,8.11,8.11,0,0,0,.68,3v3.44a34.39,34.39,0,0,1,0,4.54,45.41,45.41,0,0,1-11.55,28.61,81.38,81.38,0,0,1-21.32,16.09l-3.58,1.79a231.38,231.38,0,0,1-31.09,11.7c-5.92,1.78-11.69,3.71-17.47,5.77s-8.26,3-12.38,4.82h0s0,.82,1.37.82,1.24,0,.83,1.93h0l4.81,2.89,10.87,6.88,5.37,3.44,5,2.75a69.14,69.14,0,0,0,7.29,3.16l3.44,1.1,11.69,2.89,4.68,1.1,4.95,1.1,8.26,2.07,3,.68,5.23,1.24a46.73,46.73,0,0,0,5.36,1.1l6.19,1.1h3.86l10.45,1.24h4a27.44,27.44,0,0,1,6.05,8.67,40.52,40.52,0,0,1,2.89,7.84,16.15,16.15,0,0,1,0,2.2,29.22,29.22,0,0,1,0,5,6.36,6.36,0,0,1,0,1.51,24,24,0,0,1,0,3.17,12.85,12.85,0,0,1,0,3.16,12.18,12.18,0,0,1-2.2,4h0a1.51,1.51,0,0,0,1.65.69h3.17a18,18,0,0,0-4,4l-3.31,4.81a38,38,0,0,1-3.85,4.27,10,10,0,0,1-4.12,2.2h-1.52a52.36,52.36,0,0,1-30.81,0c-4.4-1-8.53-2.2-12.8-3.44-9.76-2.89-21.18-6.74-34-11.56h-1.24c-6.47-2.47-12.24-4.67-17.06-6.87l-6.47-2.89a137.17,137.17,0,0,1-15.82-8.67,95.82,95.82,0,0,1-12.38-8.94l-4.54-4,.42-.83-4.54-4.12h0a1.08,1.08,0,0,0,0,1,1.16,1.16,0,0,1,0,.69,1.34,1.34,0,0,1-.69,0h0a85.32,85.32,0,0,1-5.23,21.87,66.15,66.15,0,0,1-4.81,9.22,77.59,77.59,0,0,1-5.37,7.84h-1.24a9.05,9.05,0,0,0-5,0l-1.1.69a10.94,10.94,0,0,1-2.61,2.47l-1.93,1.24h-1a7.8,7.8,0,0,1-3.72,0h0l-2.06-1.24h-1l-1.65-1.23-1.38-.83a1.73,1.73,0,0,0-1.1,0,9,9,0,0,0-3.44,0h-.82l-2.07-5.92a3.59,3.59,0,0,0-2.47-2.2,8.22,8.22,0,0,0-2.62,0h0a6.63,6.63,0,0,0,0-1.78,9.21,9.21,0,0,0,0-3.31h0a22.73,22.73,0,0,0,0-2.61v-1.38c0-1.23-.82-2.47-1.24-3.71h0a8.28,8.28,0,0,1,0-4.68c-1,0-1.92,0-2.75-1.92v-.69A23.64,23.64,0,0,1,2691.74,3141.6Zm118.17-145.41a72,72,0,0,1-9.77,11.56l-10.45,10.73a72.69,72.69,0,0,0-9.36,12.1,46.53,46.53,0,0,0-3.85,8.4,62.52,62.52,0,0,0-1.79,7.29,124.47,124.47,0,0,0,17.2-3.58c4.12-1.24,8.25-2.75,12.38-4.4l15-6.06,13.76-5.77a35.52,35.52,0,0,0-8.67-20.09,41.1,41.1,0,0,0-13.75-9.76Z" />
    </g>
  </g>
</svg>