<svg xmlns="http://www.w3.org/2000/svg" viewBox="0 0 352 352">
  <g id="Layer_1-2" data-name="Ll1" class="grp">
    <path fill="currentColor" stroke="currentColor"
      d="M342.79,276.07a31.46,31.46,0,0,1,0,44.48l-22.24,22.24a31.46,31.46,0,0,1-44.48,0L176,242.72,75.93,342.79a31.46,31.46,0,0,1-44.48,0L9.21,320.55a31.46,31.46,0,0,1,0-44.48L109.28,176,9.21,75.93a31.46,31.46,0,0,1,0-44.48L31.45,9.21a31.46,31.46,0,0,1,44.48,0L176,109.28,276.07,9.21a31.46,31.46,0,0,1,44.48,0l22.24,22.24a31.46,31.46,0,0,1,0,44.48L242.72,176Z" />
  </g>
</svg>